<svg xmlns="http://www.w3.org/2000/svg" xmlns:xlink="http://www.w3.org/1999/xlink"><symbol id="arrow-down" viewBox="0 0 8 5">
<path d="M1 1L4 4L7 1" stroke="black"/>
</symbol><symbol id="arrow-right" viewBox="0 0 12 20">
<path d="M1.5 1L10.5 10L1.5 19" fill="none" stroke-width="2"/>
</symbol><symbol id="location" viewBox="0 0 17 21">
<path d="M16.1 8.07692C16.1 10.9855 14.3563 14.0101 12.3773 16.3855C11.4022 17.5559 10.4034 18.5283 9.60598 19.2019C9.20609 19.5396 8.86807 19.7927 8.61795 19.9557C8.5742 19.9842 8.53491 20.0088 8.5 20.0298C8.46509 20.0088 8.4258 19.9842 8.38205 19.9557C8.13193 19.7927 7.79391 19.5396 7.39402 19.2019C6.59657 18.5283 5.59782 17.5559 4.62272 16.3855C2.64369 14.0101 0.9 10.9855 0.9 8.07692C0.9 4.15596 4.25879 0.9 8.5 0.9C12.7412 0.9 16.1 4.15596 16.1 8.07692ZM8.31004 20.1296C8.31022 20.1293 8.31528 20.1271 8.32471 20.1241C8.31457 20.1284 8.30986 20.1299 8.31004 20.1296ZM8.67529 20.1241C8.68468 20.1271 8.68975 20.1292 8.68996 20.1296C8.69018 20.1299 8.68546 20.1284 8.67529 20.1241Z" stroke-width="1.8"/>
<circle cx="8.5" cy="8.5" r="2.6" stroke-width="1.8"/>
</symbol><symbol id="login" viewBox="0 0 18 20">
<path d="M8.69561 8.69565C7.83569 8.69565 6.99508 8.44066 6.28008 7.96291C5.56509 7.48517 5.00782 6.80613 4.67874 6.01167C4.34966 5.21721 4.26356 4.34301 4.43132 3.49961C4.59908 2.65621 5.01317 1.88151 5.62123 1.27345C6.22928 0.665396 7.00399 0.251306 7.84739 0.0835442C8.69078 -0.0842176 9.56499 0.00188384 10.3594 0.330961C11.1539 0.660037 11.8329 1.21731 12.3107 1.93231C12.7884 2.6473 13.0434 3.48791 13.0434 4.34783C13.0434 5.50094 12.5854 6.60683 11.77 7.42221C10.9546 8.23758 9.84872 8.69565 8.69561 8.69565ZM8.69561 1.73913C8.17966 1.73913 7.67529 1.89213 7.24629 2.17878C6.81729 2.46542 6.48293 2.87285 6.28549 3.34952C6.08804 3.8262 6.03638 4.35072 6.13704 4.85676C6.23769 5.3628 6.48615 5.82762 6.85098 6.19245C7.21581 6.55729 7.68064 6.80574 8.18668 6.9064C8.69271 7.00706 9.21723 6.9554 9.69391 6.75795C10.1706 6.5605 10.578 6.22614 10.8647 5.79714C11.1513 5.36814 11.3043 4.86378 11.3043 4.34783C11.3043 3.65596 11.0295 2.99243 10.5402 2.5032C10.051 2.01398 9.38748 1.73913 8.69561 1.73913Z"/>
<path d="M16.5217 20H0.869565C0.638942 20 0.417765 19.9084 0.25469 19.7453C0.0916146 19.5823 0 19.3611 0 19.1305V16.5218C0 14.6768 0.732917 12.9074 2.03752 11.6028C3.34212 10.2982 5.11154 9.56525 6.95652 9.56525H10.4348C12.2798 9.56525 14.0492 10.2982 15.3538 11.6028C16.6584 12.9074 17.3913 14.6768 17.3913 16.5218V19.1305C17.3913 19.3611 17.2997 19.5823 17.1366 19.7453C16.9735 19.9084 16.7524 20 16.5217 20ZM1.73913 18.2609H15.6522V16.5218C15.6522 15.138 15.1025 13.811 14.124 12.8325C13.1456 11.8541 11.8185 11.3044 10.4348 11.3044H6.95652C5.57278 11.3044 4.24572 11.8541 3.26727 12.8325C2.28882 13.811 1.73913 15.138 1.73913 16.5218V18.2609Z"/>
</symbol><symbol id="order" viewBox="0 0 17 17">
<circle cx="8.5" cy="8.5" r="8"/>
<path d="M5.5 8L8.07692 10.5L12.5769 6"/>
</symbol><symbol id="question" viewBox="0 0 17 16">
<path d="M7 11.5H6.8099L6.66782 11.6263L3 14.8866V12V11.5H2.5H2C1.17157 11.5 0.5 10.8284 0.5 10V2C0.5 1.17157 1.17157 0.5 2 0.5H15C15.8284 0.5 16.5 1.17157 16.5 2V10C16.5 10.8284 15.8284 11.5 15 11.5H7Z"/>
<line x1="4" y1="4.5" x2="11" y2="4.5"/>
<line x1="4" y1="7.5" x2="9" y2="7.5"/>
</symbol><symbol id="ring" viewBox="0 0 18 20">
<path d="M15.9498 11.8909L15.5709 11.5861C15.469 11.5045 15.3868 11.4011 15.3302 11.2835C15.2737 11.1659 15.2443 11.0371 15.2442 10.9066V7.38736C15.2437 5.87499 14.7185 4.40964 13.7583 3.24125C12.798 2.07287 11.4621 1.27383 9.97844 0.980429C9.9061 0.699848 9.74255 0.451271 9.5135 0.273792C9.28446 0.096313 9.00292 0 8.71317 0C8.42341 0 8.14187 0.096313 7.91283 0.273792C7.68379 0.451271 7.52024 0.699848 7.4479 0.980429C5.96346 1.27294 4.62655 2.0716 3.66541 3.24007C2.70426 4.40854 2.17845 5.87438 2.17775 7.38736V10.9066C2.17767 11.0371 2.14827 11.1659 2.09173 11.2835C2.03519 11.4011 1.95295 11.5045 1.85109 11.5861L1.47216 11.8909C1.01452 12.2568 0.644714 12.7206 0.389947 13.2482C0.13518 13.7759 0.00193104 14.3539 0 14.9398V15.6628C0 16.1249 0.183552 16.568 0.510278 16.8947C0.837003 17.2214 1.28014 17.405 1.7422 17.405H5.33984C5.53618 18.1488 5.97313 18.8066 6.58254 19.276C7.19196 19.7454 7.93957 20 8.70881 20C9.47805 20 10.2257 19.7454 10.8351 19.276C11.4445 18.8066 11.8814 18.1488 12.0778 17.405H15.6798C16.1418 17.405 16.585 17.2214 16.9117 16.8947C17.2384 16.568 17.422 16.1249 17.422 15.6628V14.9485C17.4213 14.3611 17.2887 13.7814 17.0339 13.2522C16.7791 12.7229 16.4086 12.2577 15.9498 11.8909ZM8.71099 18.2761C8.40695 18.2743 8.10869 18.1929 7.84584 18.0401C7.58299 17.8873 7.36471 17.6683 7.2127 17.405H10.2136C10.0612 17.6689 9.84228 17.8883 9.57861 18.0412C9.31493 18.194 9.01577 18.275 8.71099 18.2761ZM15.6798 15.6628H1.7422V14.9485C1.74266 14.6221 1.81649 14.3 1.95823 14.006C2.09996 13.7119 2.30597 13.4535 2.56103 13.2499L2.93996 12.945C3.24555 12.7003 3.49227 12.3901 3.66189 12.0373C3.83151 11.6845 3.9197 11.2981 3.91995 10.9066V7.38736C3.91995 6.1167 4.42471 4.89808 5.32321 3.99958C6.2217 3.10109 7.44032 2.59632 8.71099 2.59632C9.98165 2.59632 11.2003 3.10109 12.0988 3.99958C12.9973 4.89808 13.502 6.1167 13.502 7.38736V10.9066C13.5016 11.2988 13.5895 11.6861 13.7591 12.0397C13.9288 12.3933 14.1759 12.7042 14.482 12.9493L14.8609 13.2542C15.1154 13.4574 15.3211 13.7151 15.4628 14.0083C15.6045 14.3016 15.6787 14.6228 15.6798 14.9485V15.6628Z"/>
</symbol><symbol id="search" viewBox="0 0 20 20">
<path fill-rule="evenodd" clip-rule="evenodd" d="M8.33648 14.6881C11.8444 14.6881 14.6881 11.8444 14.6881 8.33648C14.6881 4.82859 11.8444 1.98488 8.33648 1.98488C4.82859 1.98488 1.98488 4.82859 1.98488 8.33648C1.98488 11.8444 4.82859 14.6881 8.33648 14.6881ZM8.33648 16.673C12.9406 16.673 16.673 12.9406 16.673 8.33648C16.673 3.73237 12.9406 0 8.33648 0C3.73237 0 0 3.73237 0 8.33648C0 12.9406 3.73237 16.673 8.33648 16.673Z"/>
<path fill-rule="evenodd" clip-rule="evenodd" d="M18.2609 20L13.0435 14.7826L14.447 13.3791L19.6644 18.5965L18.2609 20Z"/>
</symbol></svg>